<?xml version="1.0" standalone="no"?>
<!DOCTYPE svg PUBLIC "-//W3C//DTD SVG 20010904//EN"
 "http://www.w3.org/TR/2001/REC-SVG-20010904/DTD/svg10.dtd">
<svg version="1.0" xmlns="http://www.w3.org/2000/svg"
 width="100" height="100" viewBox="0 0 500.000000 500.000000"
 preserveAspectRatio="xMidYMid meet">

<g transform="translate(0.000000,500.000000) scale(0.100000,-0.100000)"
fill="#000000" stroke="none">
<path d="M2180 2725 l0 -845 170 0 170 0 0 385 0 385 160 0 160 0 0 160 0 160
-160 0 -160 0 0 135 0 135 170 0 170 0 0 165 0 165 -340 0 -340 0 0 -845z"/>
<path d="M2977 1862 c-44 -30 -56 -53 -57 -109 0 -41 5 -58 26 -82 74 -89 224
-39 224 75 0 80 -51 134 -127 134 -21 0 -50 -8 -66 -18z"/>
</g>
</svg>
